<svg xmlns="http://www.w3.org/2000/svg" xmlns:xlink="http://www.w3.org/1999/xlink" viewBox="0 0 74.1 415.56"><defs><clipPath id="a2564ccd-2fe3-4481-92b3-7fa7440dc94a"><path d="M25.41,86.75a9.14,9.14,0,1,1,9.14,9.14,9.14,9.14,0,0,1-9.14-9.14Z" style="fill:none"/></clipPath></defs><title>toolchain</title><g id="b9ad0005-955d-470a-8021-cb126c0ad04e" data-name="Layer 6"><circle cx="36.81" cy="85.06" r="24.69" style="fill:#fff"/><path d="M36.81,110.24A25.18,25.18,0,1,1,62,85.06,25.21,25.21,0,0,1,36.81,110.24Zm0-49.39A24.2,24.2,0,1,0,61,85.06,24.23,24.23,0,0,0,36.81,60.85Z" style="fill:#84c2eb"/><circle cx="36.81" cy="220.39" r="24.69" style="fill:#fff"/><path d="M36.81,245.58A25.18,25.18,0,1,1,62,220.39,25.21,25.21,0,0,1,36.81,245.58Zm0-49.39A24.2,24.2,0,1,0,61,220.39,24.23,24.23,0,0,0,36.81,196.19Z" style="fill:#84c2eb"/><circle cx="36.81" cy="85.06" r="18" transform="translate(-47.65 46.9) rotate(-42.28)" style="fill:#152935"/><path d="M31.83,75.54a17.85,17.85,0,0,0-5.46,5h0a10.2,10.2,0,0,0-2.06,6.17v.05A10.25,10.25,0,1,0,40.9,78.71h0a4.12,4.12,0,0,1,4-3.22h3.53v-1.1C47,73.88,39.12,71.26,31.83,75.54Z" style="fill:#dfe2e5"/><g style="clip-path:url(#a2564ccd-2fe3-4481-92b3-7fa7440dc94a)"><path d="M25.41,86.75a9.14,9.14,0,1,1,9.14,9.14,9.14,9.14,0,0,1-9.14-9.14Z" style="fill:#dfe2e5"/><path d="M33.59,88a7,7,0,0,0,4.88,1.86,7.13,7.13,0,0,0,5.17-2.11h0a6.73,6.73,0,0,0-4.89-2A6.93,6.93,0,0,0,33.59,88Z" style="fill:#00b6d6"/><path d="M38.48,89.85A7,7,0,0,1,33.59,88c-2-1.68-3.37-3.88-7.07-3.88-.26,0-.5,0-.73,0a9.14,9.14,0,0,0-.38,2.6v0a9.15,9.15,0,0,0,18.12,1.71c0-.25.09-.51.11-.77A7.13,7.13,0,0,1,38.48,89.85Z" style="fill:#009cca"/></g><circle cx="28.48" cy="88.68" r="0.87" style="fill:#00b6d6"/><circle cx="36.72" cy="83.69" r="0.87" style="fill:#009cca"/><circle cx="28.79" cy="84.28" r="0.87" style="fill:#009cca"/><circle cx="38.28" cy="81" r="0.51" style="fill:#009cca"/><circle cx="41.49" cy="84.2" r="0.51" style="fill:#009cca"/><circle cx="39.16" cy="87.94" r="0.51" style="fill:#009cca"/><circle cx="30.4" cy="90.59" r="0.55" style="fill:#00b6d6"/><circle cx="48.46" cy="81.21" r="0.86" style="fill:#f18417"/><circle cx="48.46" cy="79.16" r="0.36" style="fill:#f18417"/><g style="opacity:0.3"><path d="M28.45,89a2.24,2.24,0,0,1-2.24-2.24,9.05,9.05,0,0,1,4.87-8,2.24,2.24,0,0,1,2.08,4,4.58,4.58,0,0,0-2.47,4.07A2.24,2.24,0,0,1,28.45,89Z" style="fill:#74c8d9"/></g><circle cx="32.12" cy="80.72" r="2.24" style="fill:#fff"/><rect x="35.31" y="158.83" width="3" height="24.5" style="fill:#67a7db"/><path d="M51,211.58a11.3,11.3,0,0,0-2.93-3.37,11.62,11.62,0,0,0-5-3.68A3.57,3.57,0,0,0,42,204.3,1.2,1.2,0,0,0,40.73,206a2.89,2.89,0,0,0,.44.75.61.61,0,0,1,.11.55,1.28,1.28,0,0,1-.52.71,14.94,14.94,0,0,1-3.51,2.15,12.33,12.33,0,0,1-3,1c-.32.05-.33,0-.45-.21s-.28-.65-.42-1l-.1-.28c-.09-.22-.27-.69-.75-.78a1.11,1.11,0,0,0-1,.46,8.89,8.89,0,0,0-1.43,2.19A20.65,20.65,0,0,0,28.75,216a49.44,49.44,0,0,1-2.56,8.18,9.73,9.73,0,0,1-4,4.42,5.32,5.32,0,0,0-.86.61,2.07,2.07,0,0,0-.82,1.63.61.61,0,0,0,0,.23,2.42,2.42,0,0,1,0,.28c0,.14,0,.31.09.49a3.37,3.37,0,0,0,.79,2.08l0,.05c.28.31,1.18,1,3.79,1h.56a4.62,4.62,0,0,0,.54,0h.1a11.56,11.56,0,0,0,5.89-2,15.41,15.41,0,0,0,3-2.56c.9-1,1.78-2.07,2.64-3.09L39.13,226a41,41,0,0,1,9-7.75,8.69,8.69,0,0,0,2.76-2.69A3.68,3.68,0,0,0,51,211.58Z" style="fill:#fff"/><path d="M50.48,211.88a10.64,10.64,0,0,0-2.83-3.23,11.11,11.11,0,0,1,.81,1.2,3.06,3.06,0,0,1-.11,3.34,8.17,8.17,0,0,1-2.58,2.5,41.94,41.94,0,0,0-9.13,7.86c-1.23,1.45-2.43,2.93-3.7,4.35A14.9,14.9,0,0,1,30,230.37a11,11,0,0,1-5.55,1.88h-.58a12.3,12.3,0,0,1-1.7-.37,1.68,1.68,0,0,1-.79-.45c-.22.52-.15,1.18.57,2.16.31.34,1.43.83,3.9.75l.63,0a10.93,10.93,0,0,0,5.55-1.88A14.9,14.9,0,0,0,35,230c1.25-1.44,2.48-2.91,3.7-4.36a41.65,41.65,0,0,1,9.13-7.86,8.17,8.17,0,0,0,2.58-2.5A3.08,3.08,0,0,0,50.48,211.88Z" style="fill:#048672"/><path d="M49,210.58a10.73,10.73,0,0,0-2.12-2.64,10.9,10.9,0,0,1,1.4,1.92,3.06,3.06,0,0,1-.11,3.34,8.17,8.17,0,0,1-2.58,2.5,41.94,41.94,0,0,0-9.13,7.86c-1.23,1.45-2.43,2.93-3.7,4.35a14.9,14.9,0,0,1-2.89,2.45,11,11,0,0,1-5.55,1.88c-.1,0-1.09-.58-1.15-.59a12.3,12.3,0,0,1-1.7-.37,4.84,4.84,0,0,1-.34-.38c.1.36.08,1.36.63,1.59a7.54,7.54,0,0,0,2.7.46,5.2,5.2,0,0,0,.58,0,10.93,10.93,0,0,0,5.55-1.88,14.9,14.9,0,0,0,2.89-2.45c1.26-1.42,2.47-2.9,3.7-4.35a42.24,42.24,0,0,1,9.12-7.85,8.17,8.17,0,0,0,2.58-2.5A3,3,0,0,0,49,210.58Z" style="fill:#aeb8b8"/><g id="7b483487-0acd-4597-9f03-370ce59225e5" data-name=" 2Cvax8.tif"><path d="M23.92,232.24a12.3,12.3,0,0,1-1.7-.37c-1.23-.36-1.39-1.34-.44-2.17a4.74,4.74,0,0,1,.76-.55,10.36,10.36,0,0,0,4.23-4.72,50.16,50.16,0,0,0,2.59-8.28,20.28,20.28,0,0,1,1.39-4.36,8.22,8.22,0,0,1,1.34-2c.35-.39.49-.36.68.13s.33.89.54,1.31a.88.88,0,0,0,1.11.55,12.87,12.87,0,0,0,3.1-1.07,15.67,15.67,0,0,0,3.65-2.22,1.89,1.89,0,0,0,.73-1,1.23,1.23,0,0,0-.22-1.05,2.39,2.39,0,0,1-.36-.59.59.59,0,0,1,.61-.86,3,3,0,0,1,1,.19,10.85,10.85,0,0,1,5.56,4.75,3.06,3.06,0,0,1-.11,3.34,8.17,8.17,0,0,1-2.58,2.5,42.17,42.17,0,0,0-9.13,7.86c-1.23,1.45-2.43,2.93-3.7,4.35a14.9,14.9,0,0,1-2.89,2.45,11,11,0,0,1-5.55,1.88A4.51,4.51,0,0,1,23.92,232.24Z" style="fill:#1e374a"/></g><circle cx="31.95" cy="215.31" r="1.02" style="fill:#aeb8b8"/><circle cx="30.97" cy="218.71" r="1.02" style="fill:#aeb8b8"/><circle cx="30" cy="222.11" r="1.02" style="fill:#aeb8b8"/><path d="M8.37,122.72a1.9,1.9,0,0,0-.42-.47,2,2,0,0,0-1.24-.43,2.21,2.21,0,0,0-1.08.25,2,2,0,0,0-.72.66,2.88,2.88,0,0,0-.4.94,4.69,4.69,0,0,0-.13,1.09,4.36,4.36,0,0,0,.13,1,2.81,2.81,0,0,0,.4.92,2.05,2.05,0,0,0,.72.65,2.2,2.2,0,0,0,1.08.25,1.74,1.74,0,0,0,1.35-.53,2.44,2.44,0,0,0,.59-1.39h1.82a4.37,4.37,0,0,1-.37,1.45,3.49,3.49,0,0,1-.79,1.1,3.37,3.37,0,0,1-1.15.7,4.22,4.22,0,0,1-1.45.24,4.38,4.38,0,0,1-1.77-.34,3.77,3.77,0,0,1-1.33-.94,4.16,4.16,0,0,1-.83-1.41,5.17,5.17,0,0,1-.29-1.75A5.35,5.35,0,0,1,2.79,123a4.27,4.27,0,0,1,.83-1.43,3.78,3.78,0,0,1,1.33-1,4.32,4.32,0,0,1,1.77-.35,4.33,4.33,0,0,1,1.34.2,3.64,3.64,0,0,1,1.13.59,3.21,3.21,0,0,1,.82,1,3.47,3.47,0,0,1,.41,1.32H8.59A1.56,1.56,0,0,0,8.37,122.72Z" style="fill:#152935"/><path d="M13.34,120.43V129h-1.7v-8.57Z" style="fill:#152935"/><path d="M14.72,124.55a2.84,2.84,0,0,1,1.66-1.69,3.54,3.54,0,0,1,1.32-.23,3.59,3.59,0,0,1,1.33.23,2.83,2.83,0,0,1,1.66,1.69,3.83,3.83,0,0,1,.23,1.35,3.77,3.77,0,0,1-.23,1.34,2.92,2.92,0,0,1-.65,1,2.83,2.83,0,0,1-1,.65,3.67,3.67,0,0,1-1.33.23,3.62,3.62,0,0,1-1.32-.23,2.84,2.84,0,0,1-1-.65,2.92,2.92,0,0,1-.65-1,3.77,3.77,0,0,1-.23-1.34A3.83,3.83,0,0,1,14.72,124.55Zm1.55,2.08a1.94,1.94,0,0,0,.25.64,1.3,1.3,0,0,0,.46.45,1.4,1.4,0,0,0,.72.17,1.44,1.44,0,0,0,.73-.17,1.28,1.28,0,0,0,.47-.45,1.92,1.92,0,0,0,.25-.64,3.56,3.56,0,0,0,.07-.73,3.67,3.67,0,0,0-.07-.73,1.85,1.85,0,0,0-.25-.64,1.36,1.36,0,0,0-.47-.45,1.4,1.4,0,0,0-.73-.17,1.37,1.37,0,0,0-.72.17,1.39,1.39,0,0,0-.46.45,1.87,1.87,0,0,0-.25.64,3.67,3.67,0,0,0-.07.73A3.56,3.56,0,0,0,16.27,126.63Z" style="fill:#152935"/><path d="M26.21,129v-.86h0a1.92,1.92,0,0,1-.84.78,2.47,2.47,0,0,1-1.06.24,3,3,0,0,1-1.12-.18,1.61,1.61,0,0,1-.69-.51,2,2,0,0,1-.35-.8,5,5,0,0,1-.1-1V122.8h1.7v3.5a2.17,2.17,0,0,0,.24,1.15.93.93,0,0,0,.85.38,1.18,1.18,0,0,0,1-.41,2.3,2.3,0,0,0,.31-1.36V122.8h1.7V129Z" style="fill:#152935"/><path d="M33.53,128.21a1.75,1.75,0,0,1-.79.73,2.6,2.6,0,0,1-1.1.22,2.64,2.64,0,0,1-1.22-.27,2.45,2.45,0,0,1-.87-.73,3.32,3.32,0,0,1-.52-1.06,4.48,4.48,0,0,1-.17-1.25,4.22,4.22,0,0,1,.17-1.21,3.13,3.13,0,0,1,.52-1,2.51,2.51,0,0,1,2.06-1,2.43,2.43,0,0,1,1,.23,1.82,1.82,0,0,1,.79.69h0v-3.12h1.7V129H33.56v-.79Zm-.07-3.07a1.85,1.85,0,0,0-.25-.62,1.4,1.4,0,0,0-.45-.44,1.32,1.32,0,0,0-.7-.17,1.38,1.38,0,0,0-.71.17,1.33,1.33,0,0,0-.46.44,1.94,1.94,0,0,0-.25.63,3.43,3.43,0,0,0-.08.74,3.18,3.18,0,0,0,.08.72,2,2,0,0,0,.27.64,1.49,1.49,0,0,0,.47.46,1.26,1.26,0,0,0,.68.17,1.35,1.35,0,0,0,.7-.17,1.27,1.27,0,0,0,.45-.45,2,2,0,0,0,.24-.64,3.8,3.8,0,0,0,.07-.74A3.71,3.71,0,0,0,33.46,125.14Z" style="fill:#152935"/><path d="M46.39,120.43V122H41.86v1.84H46v1.46H41.86v2.1h4.62V129H40v-8.57Z" style="fill:#152935"/><path d="M49.11,129,47,122.8h1.79L50.08,127h0l1.31-4.24h1.69L51,129Z" style="fill:#152935"/><path d="M55.64,127.51a1.75,1.75,0,0,0,2,.11,1.07,1.07,0,0,0,.46-.55h1.5a2.85,2.85,0,0,1-1.1,1.6,3.25,3.25,0,0,1-1.8.48,3.54,3.54,0,0,1-1.32-.23,2.74,2.74,0,0,1-1-.67,3,3,0,0,1-.63-1,3.76,3.76,0,0,1-.22-1.32,3.61,3.61,0,0,1,.23-1.3,3,3,0,0,1,1.65-1.73,3.22,3.22,0,0,1,1.29-.25,3,3,0,0,1,1.38.31,2.76,2.76,0,0,1,1,.82,3.39,3.39,0,0,1,.55,1.18,4.42,4.42,0,0,1,.12,1.38H55.22A1.72,1.72,0,0,0,55.64,127.51Zm1.93-3.26a1.2,1.2,0,0,0-.93-.34A1.48,1.48,0,0,0,56,124a1.29,1.29,0,0,0-.43.34,1.25,1.25,0,0,0-.23.43,1.94,1.94,0,0,0-.08.41H58A2,2,0,0,0,57.56,124.25Z" style="fill:#152935"/><path d="M62.32,122.8v.86h0a2,2,0,0,1,.84-.79,2.43,2.43,0,0,1,1.06-.25,2.89,2.89,0,0,1,1.12.19,1.66,1.66,0,0,1,.69.52,2,2,0,0,1,.35.8,5,5,0,0,1,.1,1V129h-1.7v-3.5a2.19,2.19,0,0,0-.24-1.15.93.93,0,0,0-.85-.38,1.18,1.18,0,0,0-1,.41,2.3,2.3,0,0,0-.31,1.36V129H60.7v-6.2Z" style="fill:#152935"/><path d="M71.22,122.8v1.14H70V127a.58.58,0,0,0,.72.72H71l.25,0V129a3.92,3.92,0,0,1-.48,0h-.52a5,5,0,0,1-.75-.05,1.77,1.77,0,0,1-.62-.21,1.11,1.11,0,0,1-.43-.44,1.59,1.59,0,0,1-.16-.76v-3.66h-1V122.8h1v-1.86H70v1.86Z" style="fill:#152935"/><path d="M2.65,134.83l2,5.89h0l1.9-5.89H9.23v8.57H7.46v-6.07h0l-2.1,6.07H3.89l-2.1-6h0v6H0v-8.57Z" style="fill:#152935"/><path d="M10.63,139.1a2,2,0,0,1,.3-1,2,2,0,0,1,.67-.64,2.91,2.91,0,0,1,.92-.34,5.19,5.19,0,0,1,1-.1,7,7,0,0,1,.95.07,2.91,2.91,0,0,1,.88.26,1.72,1.72,0,0,1,.65.53,1.49,1.49,0,0,1,.25.91V142a6.62,6.62,0,0,0,0,.8,1.46,1.46,0,0,0,.17.58H14.76a2.33,2.33,0,0,1-.08-.29,2.42,2.42,0,0,1,0-.31,2.23,2.23,0,0,1-1,.59,3.88,3.88,0,0,1-1.13.17,3,3,0,0,1-.83-.11,1.9,1.9,0,0,1-.67-.34,1.56,1.56,0,0,1-.45-.58,2,2,0,0,1-.16-.83,1.8,1.8,0,0,1,.19-.87,1.56,1.56,0,0,1,.48-.55,2.17,2.17,0,0,1,.67-.31,7.31,7.31,0,0,1,.76-.16l.76-.1a4.63,4.63,0,0,0,.66-.11,1.14,1.14,0,0,0,.46-.21.46.46,0,0,0,.16-.4.9.9,0,0,0-.09-.44.65.65,0,0,0-.24-.25,1,1,0,0,0-.35-.12,2.91,2.91,0,0,0-.43,0,1.29,1.29,0,0,0-.79.22,1,1,0,0,0-.34.72Zm3.94,1.26a.76.76,0,0,1-.27.15l-.35.09-.39.06-.41.06-.38.1a1.12,1.12,0,0,0-.32.16.78.78,0,0,0-.22.26.84.84,0,0,0-.08.4.81.81,0,0,0,.08.38.65.65,0,0,0,.23.25,1,1,0,0,0,.34.13,2.19,2.19,0,0,0,.4,0,1.52,1.52,0,0,0,.78-.17,1.14,1.14,0,0,0,.41-.4,1.3,1.3,0,0,0,.16-.47,3.34,3.34,0,0,0,0-.38Z" style="fill:#152935"/><path d="M19.21,137.2v.86h0a2,2,0,0,1,.84-.79,2.43,2.43,0,0,1,1.06-.25,2.89,2.89,0,0,1,1.12.19,1.66,1.66,0,0,1,.69.52,2,2,0,0,1,.35.8,5,5,0,0,1,.1,1v3.82h-1.7v-3.5a2.19,2.19,0,0,0-.24-1.15.93.93,0,0,0-.85-.38,1.18,1.18,0,0,0-1,.41,2.3,2.3,0,0,0-.31,1.36v3.25h-1.7v-6.2Z" style="fill:#152935"/><path d="M24.64,139.1a2,2,0,0,1,.3-1,2,2,0,0,1,.67-.64,2.91,2.91,0,0,1,.92-.34,5.19,5.19,0,0,1,1-.1,7,7,0,0,1,.95.07,2.91,2.91,0,0,1,.88.26,1.72,1.72,0,0,1,.65.53,1.49,1.49,0,0,1,.25.91V142a6.62,6.62,0,0,0,0,.8,1.46,1.46,0,0,0,.17.58H28.76a2.33,2.33,0,0,1-.08-.29,2.42,2.42,0,0,1,0-.31,2.23,2.23,0,0,1-1,.59,3.88,3.88,0,0,1-1.13.17,3,3,0,0,1-.83-.11,1.9,1.9,0,0,1-.67-.34,1.56,1.56,0,0,1-.45-.58,2,2,0,0,1-.16-.83,1.8,1.8,0,0,1,.19-.87,1.56,1.56,0,0,1,.48-.55,2.17,2.17,0,0,1,.67-.31,7.31,7.31,0,0,1,.76-.16l.76-.1a4.63,4.63,0,0,0,.66-.11,1.14,1.14,0,0,0,.46-.21.46.46,0,0,0,.16-.4.9.9,0,0,0-.09-.44.65.65,0,0,0-.24-.25,1,1,0,0,0-.35-.12,2.91,2.91,0,0,0-.43,0,1.29,1.29,0,0,0-.79.22,1,1,0,0,0-.34.72Zm3.94,1.26a.76.76,0,0,1-.27.15l-.35.09-.39.06-.41.06-.38.1a1.12,1.12,0,0,0-.32.16.78.78,0,0,0-.22.26.84.84,0,0,0-.08.4.81.81,0,0,0,.08.38.65.65,0,0,0,.23.25,1,1,0,0,0,.34.13,2.19,2.19,0,0,0,.4,0,1.52,1.52,0,0,0,.78-.17,1.14,1.14,0,0,0,.41-.4,1.3,1.3,0,0,0,.16-.47,3.34,3.34,0,0,0,0-.38Z" style="fill:#152935"/><path d="M37.46,143.86a2.1,2.1,0,0,1-.44.89,2.6,2.6,0,0,1-1,.7,4.18,4.18,0,0,1-1.7.29,4,4,0,0,1-.93-.11,3,3,0,0,1-.86-.35,2.13,2.13,0,0,1-.65-.62,1.79,1.79,0,0,1-.29-.91H33.3a1,1,0,0,0,.47.67,1.68,1.68,0,0,0,.8.19,1.24,1.24,0,0,0,1-.43,1.69,1.69,0,0,0,.32-1.09v-.82h0a1.69,1.69,0,0,1-.79.73,2.54,2.54,0,0,1-1.07.23,2.71,2.71,0,0,1-1.2-.25,2.27,2.27,0,0,1-.83-.67,2.8,2.8,0,0,1-.47-1,4.7,4.7,0,0,1-.15-1.21,3.86,3.86,0,0,1,.17-1.16,3,3,0,0,1,.51-1,2.48,2.48,0,0,1,.83-.68,2.51,2.51,0,0,1,1.15-.25,2.4,2.4,0,0,1,1.07.23,1.85,1.85,0,0,1,.77.77h0v-.83h1.62V143A4.13,4.13,0,0,1,37.46,143.86Zm-2.33-2.06a1.32,1.32,0,0,0,.46-.38,1.71,1.71,0,0,0,.27-.55,2.28,2.28,0,0,0,.09-.64,3.54,3.54,0,0,0-.07-.73,1.8,1.8,0,0,0-.24-.61,1.24,1.24,0,0,0-.44-.42,1.4,1.4,0,0,0-.7-.16,1.25,1.25,0,0,0-.62.14,1.3,1.3,0,0,0-.43.39,1.63,1.63,0,0,0-.25.56,2.75,2.75,0,0,0-.08.67,3.38,3.38,0,0,0,.07.67,1.78,1.78,0,0,0,.23.59,1.33,1.33,0,0,0,.43.43,1.21,1.21,0,0,0,.66.17A1.34,1.34,0,0,0,35.12,141.79Z" style="fill:#152935"/><path d="M40.75,141.91a1.75,1.75,0,0,0,2,.11,1.07,1.07,0,0,0,.46-.55h1.5a2.85,2.85,0,0,1-1.1,1.6,3.25,3.25,0,0,1-1.8.48,3.54,3.54,0,0,1-1.32-.23,2.74,2.74,0,0,1-1-.67,3,3,0,0,1-.63-1,3.76,3.76,0,0,1-.22-1.32,3.61,3.61,0,0,1,.23-1.3,3,3,0,0,1,1.65-1.73,3.22,3.22,0,0,1,1.29-.25,3,3,0,0,1,1.38.31,2.76,2.76,0,0,1,1,.82,3.39,3.39,0,0,1,.55,1.18,4.42,4.42,0,0,1,.12,1.38H40.33A1.72,1.72,0,0,0,40.75,141.91Zm1.93-3.26a1.2,1.2,0,0,0-.93-.34,1.48,1.48,0,0,0-.68.14,1.29,1.29,0,0,0-.43.34,1.25,1.25,0,0,0-.23.43,1.94,1.94,0,0,0-.08.41H43.1A2,2,0,0,0,42.68,138.65Z" style="fill:#152935"/><path d="M47.47,137.2V138h0a2.44,2.44,0,0,1,.81-.74,2.2,2.2,0,0,1,1.09-.26,2.49,2.49,0,0,1,1.07.23,1.51,1.51,0,0,1,.74.8,2.62,2.62,0,0,1,.75-.72,2,2,0,0,1,1.12-.31,3.31,3.31,0,0,1,.91.12,1.84,1.84,0,0,1,.72.38,1.76,1.76,0,0,1,.47.69,2.79,2.79,0,0,1,.17,1v4.15h-1.7v-3.52q0-.31,0-.59a1.27,1.27,0,0,0-.13-.48.81.81,0,0,0-.32-.32,1.15,1.15,0,0,0-.57-.12,1.09,1.09,0,0,0-.58.14,1,1,0,0,0-.35.36,1.45,1.45,0,0,0-.17.5,3.83,3.83,0,0,0,0,.57v3.46h-1.7v-3.48c0-.18,0-.37,0-.55a1.54,1.54,0,0,0-.1-.5.77.77,0,0,0-.3-.37,1.13,1.13,0,0,0-.62-.14,1.27,1.27,0,0,0-.32.05,1,1,0,0,0-.38.2,1.19,1.19,0,0,0-.32.43,1.75,1.75,0,0,0-.13.74v3.6h-1.7v-6.2Z" style="fill:#152935"/><path d="M58.51,141.91a1.75,1.75,0,0,0,2,.11,1.07,1.07,0,0,0,.46-.55h1.5a2.85,2.85,0,0,1-1.1,1.6,3.25,3.25,0,0,1-1.8.48,3.54,3.54,0,0,1-1.32-.23,2.74,2.74,0,0,1-1-.67,3,3,0,0,1-.63-1,3.76,3.76,0,0,1-.22-1.32,3.61,3.61,0,0,1,.23-1.3,3,3,0,0,1,1.65-1.73,3.22,3.22,0,0,1,1.29-.25,3,3,0,0,1,1.38.31,2.76,2.76,0,0,1,1,.82,3.39,3.39,0,0,1,.55,1.18,4.42,4.42,0,0,1,.12,1.38H58.09A1.72,1.72,0,0,0,58.51,141.91Zm1.93-3.26a1.2,1.2,0,0,0-.93-.34,1.48,1.48,0,0,0-.68.14,1.29,1.29,0,0,0-.43.34,1.25,1.25,0,0,0-.23.43,1.94,1.94,0,0,0-.08.41h2.77A2,2,0,0,0,60.44,138.65Z" style="fill:#152935"/><path d="M65.19,137.2v.86h0a2,2,0,0,1,.84-.79,2.43,2.43,0,0,1,1.06-.25,2.89,2.89,0,0,1,1.12.19,1.66,1.66,0,0,1,.69.52,2,2,0,0,1,.35.8,5,5,0,0,1,.1,1v3.82h-1.7v-3.5a2.19,2.19,0,0,0-.24-1.15.93.93,0,0,0-.85-.38,1.18,1.18,0,0,0-1,.41,2.3,2.3,0,0,0-.31,1.36v3.25h-1.7v-6.2Z" style="fill:#152935"/><path d="M74.1,137.2v1.14H72.85v3.07a.58.58,0,0,0,.72.72h.28l.25,0v1.32a3.92,3.92,0,0,1-.48,0H73.1a5,5,0,0,1-.75-.05,1.77,1.77,0,0,1-.62-.21,1.11,1.11,0,0,1-.43-.44,1.59,1.59,0,0,1-.16-.76v-3.66h-1V137.2h1v-1.86h1.7v1.86Z" style="fill:#152935"/><circle cx="36.81" cy="356.89" r="24.69" style="fill:#fff"/><path d="M36.81,382.08A25.18,25.18,0,1,1,62,356.89,25.21,25.21,0,0,1,36.81,382.08Zm0-49.39A24.2,24.2,0,1,0,61,356.89,24.23,24.23,0,0,0,36.81,332.69Z" style="fill:#84c2eb"/><rect x="35.31" y="295.33" width="3" height="24.5" style="fill:#67a7db"/><path d="M16.28,256.93a2.76,2.76,0,0,1,1,.19,2.4,2.4,0,0,1,.79.51,2.22,2.22,0,0,1,.5.75,2.42,2.42,0,0,1,.17.92,2.57,2.57,0,0,1-.32,1.31,2,2,0,0,1-1,.84v0a1.45,1.45,0,0,1,.58.29,1.61,1.61,0,0,1,.37.47,2.18,2.18,0,0,1,.21.59,5.08,5.08,0,0,1,.09.65c0,.14,0,.3,0,.48s0,.37,0,.56a3.71,3.71,0,0,0,.1.55,1.26,1.26,0,0,0,.2.44H17.15a3.31,3.31,0,0,1-.19-1q0-.56-.11-1.08a1.71,1.71,0,0,0-.41-1,1.4,1.4,0,0,0-1-.31H13.54v3.35H11.66v-8.57Zm-.67,3.88a1.42,1.42,0,0,0,1-.29,1.19,1.19,0,0,0,.32-.94,1.14,1.14,0,0,0-.32-.91,1.45,1.45,0,0,0-1-.28H13.54v2.41Z" style="fill:#152935"/><path d="M24.34,265.5v-.86h0a1.92,1.92,0,0,1-.84.78,2.47,2.47,0,0,1-1.06.24,3,3,0,0,1-1.12-.18,1.61,1.61,0,0,1-.69-.51,2,2,0,0,1-.35-.8,5,5,0,0,1-.1-1V259.3h1.7v3.5a2.17,2.17,0,0,0,.24,1.15.93.93,0,0,0,.85.38,1.18,1.18,0,0,0,1-.41,2.3,2.3,0,0,0,.31-1.36V259.3H26v6.2Z" style="fill:#152935"/><path d="M28.88,259.3v.86h0a2,2,0,0,1,.84-.79,2.43,2.43,0,0,1,1.06-.25,2.89,2.89,0,0,1,1.12.19,1.66,1.66,0,0,1,.69.52,2,2,0,0,1,.35.8,5,5,0,0,1,.1,1v3.82h-1.7V262a2.19,2.19,0,0,0-.24-1.15.93.93,0,0,0-.85-.38,1.18,1.18,0,0,0-1,.41,2.3,2.3,0,0,0-.31,1.36v3.25h-1.7v-6.2Z" style="fill:#152935"/><path d="M36.08,256.93v3.12h0a1.83,1.83,0,0,1,.85-.7,2.88,2.88,0,0,1,1.11-.22,2.37,2.37,0,0,1,1.75.78,3,3,0,0,1,.59,1,4.84,4.84,0,0,1,0,2.94,3,3,0,0,1-.59,1,2.37,2.37,0,0,1-1.75.78,3.28,3.28,0,0,1-1.22-.22,1.56,1.56,0,0,1-.82-.73h0v.79H34.37v-8.57Zm2.76,4.72a2,2,0,0,0-.26-.64,1.38,1.38,0,0,0-.45-.44,1.39,1.39,0,0,0-1.3,0,1.36,1.36,0,0,0-.46.44,2,2,0,0,0-.26.64,3.33,3.33,0,0,0-.08.76,3.29,3.29,0,0,0,.08.74,2,2,0,0,0,.26.64,1.36,1.36,0,0,0,.46.44,1.39,1.39,0,0,0,1.3,0,1.38,1.38,0,0,0,.45-.44,2,2,0,0,0,.26-.64,3.29,3.29,0,0,0,.08-.74A3.33,3.33,0,0,0,38.84,261.65Z" style="fill:#152935"/><path d="M41.74,261.05a2.84,2.84,0,0,1,1.66-1.69,3.54,3.54,0,0,1,1.32-.23,3.59,3.59,0,0,1,1.33.23,2.83,2.83,0,0,1,1.66,1.69,3.83,3.83,0,0,1,.23,1.35,3.77,3.77,0,0,1-.23,1.34,2.92,2.92,0,0,1-.65,1,2.83,2.83,0,0,1-1,.65,3.67,3.67,0,0,1-1.33.23,3.62,3.62,0,0,1-1.32-.23,2.84,2.84,0,0,1-1-.65,2.92,2.92,0,0,1-.65-1,3.77,3.77,0,0,1-.23-1.34A3.83,3.83,0,0,1,41.74,261.05Zm1.55,2.08a1.94,1.94,0,0,0,.25.64,1.3,1.3,0,0,0,.46.45,1.4,1.4,0,0,0,.72.17,1.44,1.44,0,0,0,.73-.17,1.28,1.28,0,0,0,.47-.45,1.92,1.92,0,0,0,.25-.64,3.56,3.56,0,0,0,.07-.73,3.67,3.67,0,0,0-.07-.73,1.85,1.85,0,0,0-.25-.64,1.36,1.36,0,0,0-.47-.45,1.4,1.4,0,0,0-.73-.17,1.37,1.37,0,0,0-.72.17,1.39,1.39,0,0,0-.46.45,1.87,1.87,0,0,0-.25.64,3.67,3.67,0,0,0-.07.73A3.56,3.56,0,0,0,43.29,263.13Z" style="fill:#152935"/><path d="M49.07,261.05a2.84,2.84,0,0,1,1.66-1.69,3.54,3.54,0,0,1,1.32-.23,3.59,3.59,0,0,1,1.33.23A2.83,2.83,0,0,1,55,261.05a3.83,3.83,0,0,1,.23,1.35,3.77,3.77,0,0,1-.23,1.34,2.92,2.92,0,0,1-.65,1,2.83,2.83,0,0,1-1,.65,3.67,3.67,0,0,1-1.33.23,3.62,3.62,0,0,1-1.32-.23,2.84,2.84,0,0,1-1-.65,2.92,2.92,0,0,1-.65-1,3.77,3.77,0,0,1-.23-1.34A3.83,3.83,0,0,1,49.07,261.05Zm1.55,2.08a1.94,1.94,0,0,0,.25.64,1.3,1.3,0,0,0,.46.45,1.4,1.4,0,0,0,.72.17,1.44,1.44,0,0,0,.73-.17,1.28,1.28,0,0,0,.47-.45,1.92,1.92,0,0,0,.25-.64,3.56,3.56,0,0,0,.07-.73,3.67,3.67,0,0,0-.07-.73,1.85,1.85,0,0,0-.25-.64,1.36,1.36,0,0,0-.47-.45,1.4,1.4,0,0,0-.73-.17,1.37,1.37,0,0,0-.72.17,1.39,1.39,0,0,0-.46.45,1.87,1.87,0,0,0-.25.64,3.67,3.67,0,0,0-.07.73A3.56,3.56,0,0,0,50.62,263.13Z" style="fill:#152935"/><path d="M58.23,256.93v4.6l2.15-2.23h2l-2.34,2.28,2.6,3.92H60.59l-1.7-2.77-.66.64v2.14h-1.7v-8.57Z" style="fill:#152935"/><path d="M8.61,271.33l3.2,8.57h-2L9.21,278H6l-.67,1.91H3.44l3.24-8.57Zm.11,5.26-1.08-3.14h0L6.5,276.59Z" style="fill:#152935"/><path d="M16.58,279.9V279h0a1.92,1.92,0,0,1-.84.78,2.47,2.47,0,0,1-1.06.24,3,3,0,0,1-1.12-.18,1.61,1.61,0,0,1-.69-.51,2,2,0,0,1-.35-.8,5,5,0,0,1-.1-1V273.7h1.7v3.5a2.17,2.17,0,0,0,.24,1.15.93.93,0,0,0,.85.38,1.18,1.18,0,0,0,1-.41,2.3,2.3,0,0,0,.31-1.36V273.7h1.7v6.2Z" style="fill:#152935"/><path d="M22.9,273.7v1.14H21.65v3.07a.58.58,0,0,0,.72.72h.28l.25,0v1.32a3.92,3.92,0,0,1-.48,0h-.52a5,5,0,0,1-.75-.05,1.77,1.77,0,0,1-.62-.21,1.11,1.11,0,0,1-.43-.44,1.59,1.59,0,0,1-.16-.76v-3.66h-1V273.7h1v-1.86h1.7v1.86Z" style="fill:#152935"/><path d="M23.75,275.45a2.84,2.84,0,0,1,1.66-1.69,3.54,3.54,0,0,1,1.32-.23,3.59,3.59,0,0,1,1.33.23,2.83,2.83,0,0,1,1.66,1.69,3.83,3.83,0,0,1,.23,1.35,3.77,3.77,0,0,1-.23,1.34,2.92,2.92,0,0,1-.65,1,2.83,2.83,0,0,1-1,.65,3.67,3.67,0,0,1-1.33.23,3.62,3.62,0,0,1-1.32-.23,2.84,2.84,0,0,1-1-.65,2.92,2.92,0,0,1-.65-1,3.77,3.77,0,0,1-.23-1.34A3.83,3.83,0,0,1,23.75,275.45Zm1.55,2.08a1.94,1.94,0,0,0,.25.64,1.3,1.3,0,0,0,.46.45,1.4,1.4,0,0,0,.72.17,1.44,1.44,0,0,0,.73-.17,1.28,1.28,0,0,0,.47-.45,1.92,1.92,0,0,0,.25-.64,3.56,3.56,0,0,0,.07-.73,3.67,3.67,0,0,0-.07-.73,1.85,1.85,0,0,0-.25-.64,1.36,1.36,0,0,0-.47-.45,1.4,1.4,0,0,0-.73-.17A1.37,1.37,0,0,0,26,275a1.39,1.39,0,0,0-.46.45,1.87,1.87,0,0,0-.25.64,3.67,3.67,0,0,0-.07.73A3.56,3.56,0,0,0,25.3,277.53Z" style="fill:#152935"/><path d="M32.71,273.7v.84h0a2.44,2.44,0,0,1,.81-.74,2.2,2.2,0,0,1,1.09-.26,2.49,2.49,0,0,1,1.07.23,1.51,1.51,0,0,1,.74.8,2.62,2.62,0,0,1,.75-.72,2,2,0,0,1,1.12-.31,3.31,3.31,0,0,1,.91.12,1.84,1.84,0,0,1,.72.38,1.76,1.76,0,0,1,.47.69,2.79,2.79,0,0,1,.17,1v4.15h-1.7v-3.52q0-.31,0-.59a1.27,1.27,0,0,0-.13-.48.81.81,0,0,0-.32-.32,1.15,1.15,0,0,0-.57-.12,1.09,1.09,0,0,0-.58.14,1,1,0,0,0-.35.36,1.45,1.45,0,0,0-.17.5,3.83,3.83,0,0,0,0,.57v3.46H35v-3.48c0-.18,0-.37,0-.55a1.54,1.54,0,0,0-.1-.5.77.77,0,0,0-.3-.37,1.13,1.13,0,0,0-.62-.14,1.27,1.27,0,0,0-.32.05,1,1,0,0,0-.38.2,1.19,1.19,0,0,0-.32.43,1.75,1.75,0,0,0-.13.74v3.6H31.1v-6.2Z" style="fill:#152935"/><path d="M41.85,275.6a2,2,0,0,1,.3-1,2,2,0,0,1,.67-.64,2.91,2.91,0,0,1,.92-.34,5.19,5.19,0,0,1,1-.1,7,7,0,0,1,.95.07,2.91,2.91,0,0,1,.88.26,1.72,1.72,0,0,1,.65.53,1.49,1.49,0,0,1,.25.91v3.23a6.62,6.62,0,0,0,0,.8,1.46,1.46,0,0,0,.17.58H46a2.33,2.33,0,0,1-.08-.29,2.42,2.42,0,0,1,0-.31,2.23,2.23,0,0,1-1,.59,3.88,3.88,0,0,1-1.13.17,3,3,0,0,1-.83-.11,1.9,1.9,0,0,1-.67-.34,1.56,1.56,0,0,1-.45-.58,2,2,0,0,1-.16-.83,1.8,1.8,0,0,1,.19-.87,1.56,1.56,0,0,1,.48-.55,2.17,2.17,0,0,1,.67-.31,7.31,7.31,0,0,1,.76-.16l.76-.1a4.63,4.63,0,0,0,.66-.11,1.14,1.14,0,0,0,.46-.21.46.46,0,0,0,.16-.4.9.9,0,0,0-.09-.44.65.65,0,0,0-.24-.25,1,1,0,0,0-.35-.12,2.91,2.91,0,0,0-.43,0,1.29,1.29,0,0,0-.79.22,1,1,0,0,0-.34.72Zm3.94,1.26a.76.76,0,0,1-.27.15l-.35.09-.39.06-.41.06-.38.1a1.12,1.12,0,0,0-.32.16.78.78,0,0,0-.22.26.84.84,0,0,0-.08.4.81.81,0,0,0,.08.38.65.65,0,0,0,.23.25,1,1,0,0,0,.34.13,2.19,2.19,0,0,0,.4,0,1.52,1.52,0,0,0,.78-.17,1.14,1.14,0,0,0,.41-.4,1.3,1.3,0,0,0,.16-.47,3.34,3.34,0,0,0,0-.38Z" style="fill:#152935"/><path d="M52.22,273.7v1.14H51v3.07a.58.58,0,0,0,.72.72H52l.25,0v1.32a3.92,3.92,0,0,1-.48,0h-.52a5,5,0,0,1-.75-.05,1.77,1.77,0,0,1-.62-.21,1.11,1.11,0,0,1-.43-.44,1.59,1.59,0,0,1-.16-.76v-3.66h-1V273.7h1v-1.86H51v1.86Z" style="fill:#152935"/><path d="M53.08,272.74v-1.4h1.7v1.4Zm1.7,1v6.2h-1.7v-6.2Z" style="fill:#152935"/><path d="M56.17,275.45a2.84,2.84,0,0,1,1.66-1.69,3.54,3.54,0,0,1,1.32-.23,3.59,3.59,0,0,1,1.33.23,2.83,2.83,0,0,1,1.66,1.69,3.83,3.83,0,0,1,.23,1.35,3.77,3.77,0,0,1-.23,1.34,2.92,2.92,0,0,1-.65,1,2.83,2.83,0,0,1-1,.65,3.67,3.67,0,0,1-1.33.23,3.62,3.62,0,0,1-1.32-.23,2.84,2.84,0,0,1-1-.65,2.92,2.92,0,0,1-.65-1,3.77,3.77,0,0,1-.23-1.34A3.83,3.83,0,0,1,56.17,275.45Zm1.55,2.08a1.94,1.94,0,0,0,.25.64,1.3,1.3,0,0,0,.46.45,1.4,1.4,0,0,0,.72.17,1.44,1.44,0,0,0,.73-.17,1.28,1.28,0,0,0,.47-.45,1.92,1.92,0,0,0,.25-.64,3.56,3.56,0,0,0,.07-.73,3.67,3.67,0,0,0-.07-.73,1.85,1.85,0,0,0-.25-.64,1.36,1.36,0,0,0-.47-.45,1.4,1.4,0,0,0-.73-.17,1.37,1.37,0,0,0-.72.17,1.39,1.39,0,0,0-.46.45,1.87,1.87,0,0,0-.25.64,3.67,3.67,0,0,0-.07.73A3.56,3.56,0,0,0,57.71,277.53Z" style="fill:#152935"/><path d="M65.08,273.7v.86h0a2,2,0,0,1,.84-.79,2.43,2.43,0,0,1,1.06-.25,2.89,2.89,0,0,1,1.12.19,1.66,1.66,0,0,1,.69.52,2,2,0,0,1,.35.8,5,5,0,0,1,.1,1v3.82h-1.7v-3.5a2.19,2.19,0,0,0-.24-1.15.93.93,0,0,0-.85-.38,1.18,1.18,0,0,0-1,.41,2.3,2.3,0,0,0-.31,1.36v3.25h-1.7v-6.2Z" style="fill:#152935"/><path d="M26.6,392.43l3.2,8.57h-2l-.65-1.91H24L23.33,401h-1.9l3.24-8.57Zm.11,5.26-1.08-3.14h0l-1.12,3.14Z" style="fill:#152935"/><path d="M32.12,392.43V401h-1.7v-8.57Z" style="fill:#152935"/><path d="M35.29,399.51a1.75,1.75,0,0,0,2,.11,1.07,1.07,0,0,0,.46-.55h1.5a2.85,2.85,0,0,1-1.1,1.6,3.25,3.25,0,0,1-1.8.48,3.54,3.54,0,0,1-1.32-.23,2.74,2.74,0,0,1-1-.67,3,3,0,0,1-.63-1,3.76,3.76,0,0,1-.22-1.32,3.61,3.61,0,0,1,.23-1.3A3,3,0,0,1,35,394.88a3.22,3.22,0,0,1,1.29-.25,3,3,0,0,1,1.38.31,2.76,2.76,0,0,1,1,.82,3.39,3.39,0,0,1,.55,1.18,4.42,4.42,0,0,1,.12,1.38H34.87A1.72,1.72,0,0,0,35.29,399.51Zm1.93-3.26a1.2,1.2,0,0,0-.93-.34,1.48,1.48,0,0,0-.68.14,1.29,1.29,0,0,0-.43.34,1.25,1.25,0,0,0-.23.43,1.94,1.94,0,0,0-.08.41h2.77A2,2,0,0,0,37.22,396.25Z" style="fill:#152935"/><path d="M42,394.8v1.15h0a2.07,2.07,0,0,1,.32-.53,2.12,2.12,0,0,1,.47-.42,2.29,2.29,0,0,1,.56-.27,2,2,0,0,1,.62-.1,1.33,1.33,0,0,1,.37.06v1.58l-.29,0-.32,0a1.81,1.81,0,0,0-.79.16,1.37,1.37,0,0,0-.52.43,1.72,1.72,0,0,0-.28.63,3.45,3.45,0,0,0-.08.78V401h-1.7v-6.2Z" style="fill:#152935"/><path d="M48.43,394.8v1.14H47.18V399a.58.58,0,0,0,.72.72h.28l.25,0V401a3.92,3.92,0,0,1-.48,0h-.52a5,5,0,0,1-.75-.05,1.77,1.77,0,0,1-.62-.21,1.11,1.11,0,0,1-.43-.44,1.59,1.59,0,0,1-.16-.76v-3.66h-1V394.8h1v-1.86h1.7v1.86Z" style="fill:#152935"/><path d="M6.33,406.83l3.58,5.75h0v-5.75h1.76v8.57H9.81l-3.56-5.74h0v5.74H4.46v-8.57Z" style="fill:#152935"/><path d="M13.21,411a2.84,2.84,0,0,1,1.66-1.69,3.54,3.54,0,0,1,1.32-.23,3.59,3.59,0,0,1,1.33.23A2.83,2.83,0,0,1,19.17,411a3.83,3.83,0,0,1,.23,1.35,3.77,3.77,0,0,1-.23,1.34,2.92,2.92,0,0,1-.65,1,2.83,2.83,0,0,1-1,.65,3.67,3.67,0,0,1-1.33.23,3.62,3.62,0,0,1-1.32-.23,2.84,2.84,0,0,1-1-.65,2.92,2.92,0,0,1-.65-1A3.77,3.77,0,0,1,13,412.3,3.83,3.83,0,0,1,13.21,411ZM14.75,413a1.94,1.94,0,0,0,.25.64,1.3,1.3,0,0,0,.46.45,1.4,1.4,0,0,0,.72.17,1.44,1.44,0,0,0,.73-.17,1.28,1.28,0,0,0,.47-.45,1.92,1.92,0,0,0,.25-.64,3.56,3.56,0,0,0,.07-.73,3.67,3.67,0,0,0-.07-.73,1.85,1.85,0,0,0-.25-.64,1.36,1.36,0,0,0-.47-.45,1.4,1.4,0,0,0-.73-.17,1.37,1.37,0,0,0-.72.17,1.39,1.39,0,0,0-.46.45,1.87,1.87,0,0,0-.25.64,3.67,3.67,0,0,0-.07.73A3.56,3.56,0,0,0,14.75,413Z" style="fill:#152935"/><path d="M23.91,409.2v1.14H22.66v3.07a.58.58,0,0,0,.72.72h.28l.25,0v1.32a3.92,3.92,0,0,1-.48,0h-.52a5,5,0,0,1-.75-.05,1.77,1.77,0,0,1-.62-.21,1.11,1.11,0,0,1-.43-.44A1.59,1.59,0,0,1,21,414v-3.66h-1V409.2h1v-1.86h1.7v1.86Z" style="fill:#152935"/><path d="M24.77,408.24v-1.4h1.7v1.4Zm1.7,1v6.2h-1.7v-6.2Z" style="fill:#152935"/><path d="M27.17,410.34V409.2h1v-.48a1.86,1.86,0,0,1,.52-1.36,2.09,2.09,0,0,1,1.56-.53l.46,0,.44,0v1.27a5.16,5.16,0,0,0-.62,0,.65.65,0,0,0-.5.16.79.79,0,0,0-.15.55v.37h1.18v1.14H29.9v5.06h-1.7v-5.06Z" style="fill:#152935"/><path d="M31.87,408.24v-1.4h1.7v1.4Zm1.7,1v6.2h-1.7v-6.2Z" style="fill:#152935"/><path d="M37.88,410.31a1.2,1.2,0,0,0-.68.19,1.48,1.48,0,0,0-.45.48,2.09,2.09,0,0,0-.25.65,3.46,3.46,0,0,0-.07.7,3.32,3.32,0,0,0,.07.68,2.14,2.14,0,0,0,.23.63,1.35,1.35,0,0,0,.44.46,1.2,1.2,0,0,0,.67.18,1.25,1.25,0,0,0,.94-.34,1.61,1.61,0,0,0,.41-.92h1.64a2.81,2.81,0,0,1-1,1.88,3.1,3.1,0,0,1-2,.65,3.4,3.4,0,0,1-1.28-.23,2.83,2.83,0,0,1-1-.65,3,3,0,0,1-.64-1,3.48,3.48,0,0,1-.23-1.28,4.14,4.14,0,0,1,.21-1.34,3,3,0,0,1,.62-1.07,2.82,2.82,0,0,1,1-.7,3.38,3.38,0,0,1,1.34-.25,3.86,3.86,0,0,1,1.06.14,2.81,2.81,0,0,1,.91.44,2.27,2.27,0,0,1,.94,1.77H39.14A1.14,1.14,0,0,0,37.88,410.31Z" style="fill:#152935"/><path d="M41.73,411.1a2,2,0,0,1,.3-1,2,2,0,0,1,.67-.64,2.91,2.91,0,0,1,.92-.34,5.19,5.19,0,0,1,1-.1,7,7,0,0,1,.95.07,2.91,2.91,0,0,1,.88.26,1.72,1.72,0,0,1,.65.53,1.49,1.49,0,0,1,.25.91V414a6.62,6.62,0,0,0,0,.8,1.46,1.46,0,0,0,.17.58H45.86a2.33,2.33,0,0,1-.08-.29,2.42,2.42,0,0,1,0-.31,2.23,2.23,0,0,1-1,.59,3.88,3.88,0,0,1-1.13.17,3,3,0,0,1-.83-.11,1.9,1.9,0,0,1-.67-.34,1.56,1.56,0,0,1-.45-.58,2,2,0,0,1-.16-.83,1.8,1.8,0,0,1,.19-.87,1.56,1.56,0,0,1,.48-.55,2.17,2.17,0,0,1,.67-.31,7.31,7.31,0,0,1,.76-.16l.76-.1a4.63,4.63,0,0,0,.66-.11,1.14,1.14,0,0,0,.46-.21.46.46,0,0,0,.16-.4.9.9,0,0,0-.09-.44.65.65,0,0,0-.24-.25,1,1,0,0,0-.35-.12,2.91,2.91,0,0,0-.43,0,1.29,1.29,0,0,0-.79.22,1,1,0,0,0-.34.72Zm3.94,1.26a.76.76,0,0,1-.27.15l-.35.09-.39.06-.41.06-.38.1a1.12,1.12,0,0,0-.32.16.78.78,0,0,0-.22.26.84.84,0,0,0-.08.4.81.81,0,0,0,.08.38.65.65,0,0,0,.23.25,1,1,0,0,0,.34.13,2.19,2.19,0,0,0,.4,0,1.52,1.52,0,0,0,.78-.17,1.14,1.14,0,0,0,.41-.4,1.3,1.3,0,0,0,.16-.47,3.34,3.34,0,0,0,0-.38Z" style="fill:#152935"/><path d="M52.1,409.2v1.14H50.85v3.07a.58.58,0,0,0,.72.72h.28l.25,0v1.32a3.92,3.92,0,0,1-.48,0H51.1a5,5,0,0,1-.75-.05,1.77,1.77,0,0,1-.62-.21,1.11,1.11,0,0,1-.43-.44,1.59,1.59,0,0,1-.16-.76v-3.66h-1V409.2h1v-1.86h1.7v1.86Z" style="fill:#152935"/><path d="M53,408.24v-1.4h1.7v1.4Zm1.7,1v6.2H53v-6.2Z" style="fill:#152935"/><path d="M56,411a2.84,2.84,0,0,1,1.66-1.69A3.54,3.54,0,0,1,59,409a3.59,3.59,0,0,1,1.33.23A2.83,2.83,0,0,1,62,411a3.83,3.83,0,0,1,.23,1.35,3.77,3.77,0,0,1-.23,1.34,2.92,2.92,0,0,1-.65,1,2.83,2.83,0,0,1-1,.65,3.67,3.67,0,0,1-1.33.23,3.62,3.62,0,0,1-1.32-.23,2.84,2.84,0,0,1-1-.65,2.92,2.92,0,0,1-.65-1,3.77,3.77,0,0,1-.23-1.34A3.83,3.83,0,0,1,56,411ZM57.59,413a1.94,1.94,0,0,0,.25.64,1.3,1.3,0,0,0,.46.45,1.4,1.4,0,0,0,.72.17,1.44,1.44,0,0,0,.73-.17,1.28,1.28,0,0,0,.47-.45,1.92,1.92,0,0,0,.25-.64,3.56,3.56,0,0,0,.07-.73,3.67,3.67,0,0,0-.07-.73,1.85,1.85,0,0,0-.25-.64,1.36,1.36,0,0,0-.47-.45,1.4,1.4,0,0,0-.73-.17,1.37,1.37,0,0,0-.72.17,1.39,1.39,0,0,0-.46.45,1.87,1.87,0,0,0-.25.64,3.67,3.67,0,0,0-.07.73A3.56,3.56,0,0,0,57.59,413Z" style="fill:#152935"/><path d="M65,409.2v.86h0a2,2,0,0,1,.84-.79,2.43,2.43,0,0,1,1.06-.25,2.89,2.89,0,0,1,1.12.19,1.66,1.66,0,0,1,.69.52,2,2,0,0,1,.35.8,5,5,0,0,1,.1,1v3.82h-1.7v-3.5a2.19,2.19,0,0,0-.24-1.15.93.93,0,0,0-.85-.38,1.18,1.18,0,0,0-1,.41,2.3,2.3,0,0,0-.31,1.36v3.25h-1.7v-6.2Z" style="fill:#152935"/><polygon points="36.75 350.37 28.04 366.32 45.45 366.32 36.75 350.37" style="fill:#03abce"/><path d="M51,369.71H22.49l14.26-26.1Zm-23.7-2.86H46.19l-9.44-17.29Z" style="fill:#0c446a"/><path d="M46.5,348.09a9.34,9.34,0,0,1-1.28,4.74l.68.36a10,10,0,0,0,1.37-5.1A10.28,10.28,0,0,0,46,343.17l-.68.41A8.77,8.77,0,0,1,46.5,348.09Z" style="fill:#0e4469"/><path d="M43.22,348.09a6.18,6.18,0,0,1-.87,3.19l.68.36a7.31,7.31,0,0,0,1-3.6,7,7,0,0,0-.87-3.37l-.64.46A6.33,6.33,0,0,1,43.22,348.09Z" style="fill:#0e4469"/><path d="M26.81,348a9.34,9.34,0,0,1,1.28-4.74l-.68-.36A10,10,0,0,0,26,348,10.28,10.28,0,0,0,27.31,353l.68-.41A8.89,8.89,0,0,1,26.81,348Z" style="fill:#0e4469"/><path d="M23.48,348.32a11.83,11.83,0,0,1,1.64-6.06l-.87-.55a12.71,12.71,0,0,0-1.82,6.56,13.24,13.24,0,0,0,1.64,6.34l.87-.5A12.25,12.25,0,0,1,23.48,348.32Z" style="fill:#0e4469"/><path d="M49.65,348A11.83,11.83,0,0,1,48,354.11l.87.5A12.71,12.71,0,0,0,50.69,348a13.24,13.24,0,0,0-1.64-6.34l-.87.5A12.57,12.57,0,0,1,49.65,348Z" style="fill:#0e4469"/><path d="M30.09,348a6.18,6.18,0,0,1,.87-3.19l-.68-.36a7.31,7.31,0,0,0-1,3.6,7,7,0,0,0,.87,3.37l.68-.41A6.29,6.29,0,0,1,30.09,348Z" style="fill:#0e4469"/><g style="isolation:isolate"><path d="M36.25,362.65l-.41-5.75v-2.41h1.65v2.41l-.38,5.75Zm-.35,2.69v-1.52h1.53v1.52Z" style="fill:#fff"/></g><path d="M13.65,12.76l2,5.89h0l1.9-5.89h2.65v8.57H18.46V15.26h0l-2.1,6.07H14.89l-2.1-6h0v6H11V12.76Z" style="fill:#152935"/><path d="M26.15,12.76l3.2,8.57h-2l-.65-1.91h-3.2l-.67,1.91H21l3.24-8.57ZM26.26,18l-1.08-3.14h0L24,18Z" style="fill:#152935"/><path d="M32,12.76l3.58,5.75h0V12.76h1.76v8.57H35.45L31.89,15.6h0v5.74H30.1V12.76Z" style="fill:#152935"/><path d="M43.27,12.76l3.2,8.57h-2l-.65-1.91h-3.2L40,21.33h-1.9l3.24-8.57ZM43.37,18l-1.08-3.14h0L41.15,18Z" style="fill:#152935"/><path d="M52.29,21.27a3.16,3.16,0,0,1-1.24.26,4.38,4.38,0,0,1-1.77-.34A3.77,3.77,0,0,1,48,20.24a4.16,4.16,0,0,1-.83-1.41,5.17,5.17,0,0,1-.29-1.75,5.35,5.35,0,0,1,.29-1.78A4.27,4.27,0,0,1,48,13.87a3.78,3.78,0,0,1,1.33-1,4.32,4.32,0,0,1,1.77-.35,4.17,4.17,0,0,1,1.28.2,3.62,3.62,0,0,1,1.12.58,3.15,3.15,0,0,1,1.22,2.24h-1.8a1.81,1.81,0,0,0-.65-1.08,1.88,1.88,0,0,0-1.16-.36,2.21,2.21,0,0,0-1.08.25,2,2,0,0,0-.72.66,2.88,2.88,0,0,0-.4.94,4.69,4.69,0,0,0-.13,1.09,4.36,4.36,0,0,0,.13,1,2.81,2.81,0,0,0,.4.92,2.05,2.05,0,0,0,.72.65,2.2,2.2,0,0,0,1.08.25,1.84,1.84,0,0,0,2-1.85H51.2V16.7h3.6v4.63H53.6l-.19-1A2.83,2.83,0,0,1,52.29,21.27Z" style="fill:#152935"/><path d="M62.73,12.76v1.58H58.21v1.84h4.15v1.46H58.21v2.1h4.62v1.58h-6.5V12.76Z" style="fill:#152935"/><rect x="6.2" width="61.04" height="5" style="fill:#018570"/></g></svg>